<mxfile host="65bd71144e">
    <diagram id="0tdWPPItUCY8QEmt5hMm" name="Page-1">
        <mxGraphModel dx="944" dy="580" grid="0" gridSize="10" guides="1" tooltips="1" connect="1" arrows="1" fold="1" page="1" pageScale="1" pageWidth="1169" pageHeight="827" math="0" shadow="0">
            <root>
                <mxCell id="0"/>
                <mxCell id="1" parent="0"/>
                <mxCell id="9" style="edgeStyle=none;html=1;" edge="1" parent="1" source="3" target="4">
                    <mxGeometry relative="1" as="geometry"/>
                </mxCell>
                <mxCell id="10" style="edgeStyle=none;html=1;" edge="1" parent="1" source="3" target="5">
                    <mxGeometry relative="1" as="geometry"/>
                </mxCell>
                <mxCell id="11" style="edgeStyle=none;html=1;" edge="1" parent="1" source="3" target="6">
                    <mxGeometry relative="1" as="geometry"/>
                </mxCell>
                <mxCell id="12" style="edgeStyle=none;html=1;" edge="1" parent="1" source="3" target="7">
                    <mxGeometry relative="1" as="geometry"/>
                </mxCell>
                <mxCell id="13" style="edgeStyle=none;html=1;" edge="1" parent="1" source="3" target="8">
                    <mxGeometry relative="1" as="geometry"/>
                </mxCell>
                <mxCell id="3" value="" style="sketch=0;outlineConnect=0;fontColor=#232F3E;gradientColor=none;fillColor=#7AA116;strokeColor=none;dashed=0;verticalLabelPosition=bottom;verticalAlign=top;align=center;html=1;fontSize=12;fontStyle=0;aspect=fixed;pointerEvents=1;shape=mxgraph.aws4.bucket;" vertex="1" parent="1">
                    <mxGeometry x="167" y="90" width="75" height="78" as="geometry"/>
                </mxCell>
                <mxCell id="4" value="" style="sketch=0;outlineConnect=0;fontColor=#232F3E;gradientColor=none;fillColor=#232F3D;strokeColor=none;dashed=0;verticalLabelPosition=bottom;verticalAlign=top;align=center;html=1;fontSize=12;fontStyle=0;aspect=fixed;pointerEvents=1;shape=mxgraph.aws4.document;" vertex="1" parent="1">
                    <mxGeometry x="100" y="345" width="39" height="53.37" as="geometry"/>
                </mxCell>
                <mxCell id="5" value="" style="sketch=0;outlineConnect=0;fontColor=#232F3E;gradientColor=none;fillColor=#232F3D;strokeColor=none;dashed=0;verticalLabelPosition=bottom;verticalAlign=top;align=center;html=1;fontSize=12;fontStyle=0;aspect=fixed;pointerEvents=1;shape=mxgraph.aws4.document;" vertex="1" parent="1">
                    <mxGeometry x="151" y="345" width="39" height="53.37" as="geometry"/>
                </mxCell>
                <mxCell id="6" value="" style="sketch=0;outlineConnect=0;fontColor=#232F3E;gradientColor=none;fillColor=#232F3D;strokeColor=none;dashed=0;verticalLabelPosition=bottom;verticalAlign=top;align=center;html=1;fontSize=12;fontStyle=0;aspect=fixed;pointerEvents=1;shape=mxgraph.aws4.document;" vertex="1" parent="1">
                    <mxGeometry x="200" y="345" width="39" height="53.37" as="geometry"/>
                </mxCell>
                <mxCell id="7" value="" style="sketch=0;outlineConnect=0;fontColor=#232F3E;gradientColor=none;fillColor=#232F3D;strokeColor=none;dashed=0;verticalLabelPosition=bottom;verticalAlign=top;align=center;html=1;fontSize=12;fontStyle=0;aspect=fixed;pointerEvents=1;shape=mxgraph.aws4.document;" vertex="1" parent="1">
                    <mxGeometry x="248" y="345" width="39" height="53.37" as="geometry"/>
                </mxCell>
                <mxCell id="8" value="" style="sketch=0;outlineConnect=0;fontColor=#232F3E;gradientColor=none;fillColor=#232F3D;strokeColor=none;dashed=0;verticalLabelPosition=bottom;verticalAlign=top;align=center;html=1;fontSize=12;fontStyle=0;aspect=fixed;pointerEvents=1;shape=mxgraph.aws4.document;" vertex="1" parent="1">
                    <mxGeometry x="293" y="345" width="39" height="53.37" as="geometry"/>
                </mxCell>
                <mxCell id="14" value="" style="shape=flexArrow;endArrow=classic;html=1;fillColor=#f8cecc;strokeColor=#b85450;" edge="1" parent="1">
                    <mxGeometry width="50" height="50" relative="1" as="geometry">
                        <mxPoint x="82" y="385" as="sourcePoint"/>
                        <mxPoint x="308" y="385" as="targetPoint"/>
                    </mxGeometry>
                </mxCell>
                <mxCell id="15" value="目的のデータが見るかるまで&lt;div&gt;すべて読み込む必要がある&lt;/div&gt;" style="text;html=1;align=center;verticalAlign=middle;resizable=0;points=[];autosize=1;strokeColor=none;fillColor=none;" vertex="1" parent="1">
                    <mxGeometry x="106" y="410" width="174" height="41" as="geometry"/>
                </mxCell>
                <mxCell id="18" value="&lt;span style=&quot;color: rgb(35, 47, 62);&quot;&gt;S3 Bucket&lt;/span&gt;&lt;div style=&quot;scrollbar-color: light-dark(#e2e2e2, #4b4b4b)&lt;br/&gt;&#x9;&#x9;&#x9;&#x9;&#x9;light-dark(#fbfbfb, var(--dark-panel-color));&quot;&gt;s3://amzn-s3-demo-bucket/&lt;/div&gt;" style="text;html=1;align=center;verticalAlign=middle;resizable=0;points=[];autosize=1;fillColor=default;" vertex="1" parent="1">
                    <mxGeometry x="123" y="180" width="163" height="41" as="geometry"/>
                </mxCell>
                <mxCell id="33" style="edgeStyle=none;html=1;" edge="1" parent="1" source="19" target="25">
                    <mxGeometry relative="1" as="geometry"/>
                </mxCell>
                <mxCell id="19" value="" style="sketch=0;outlineConnect=0;fontColor=#232F3E;gradientColor=none;fillColor=#7AA116;strokeColor=none;dashed=0;verticalLabelPosition=bottom;verticalAlign=top;align=center;html=1;fontSize=12;fontStyle=0;aspect=fixed;pointerEvents=1;shape=mxgraph.aws4.bucket;" vertex="1" parent="1">
                    <mxGeometry x="638" y="90" width="75" height="78" as="geometry"/>
                </mxCell>
                <mxCell id="20" value="2024" style="sketch=0;outlineConnect=0;fontColor=#232F3E;gradientColor=none;fillColor=#7AA116;strokeColor=none;dashed=0;verticalLabelPosition=bottom;verticalAlign=top;align=center;html=1;fontSize=12;fontStyle=0;aspect=fixed;pointerEvents=1;shape=mxgraph.aws4.bucket;" vertex="1" parent="1">
                    <mxGeometry x="670" y="174.5" width="50" height="52" as="geometry"/>
                </mxCell>
                <mxCell id="23" value="01" style="sketch=0;outlineConnect=0;fontColor=#232F3E;gradientColor=none;fillColor=#7AA116;strokeColor=none;dashed=0;verticalLabelPosition=bottom;verticalAlign=top;align=center;html=1;fontSize=12;fontStyle=0;aspect=fixed;pointerEvents=1;shape=mxgraph.aws4.bucket;" vertex="1" parent="1">
                    <mxGeometry x="708" y="259" width="50" height="52" as="geometry"/>
                </mxCell>
                <mxCell id="34" style="edgeStyle=none;html=1;" edge="1" parent="1" source="25" target="27">
                    <mxGeometry relative="1" as="geometry"/>
                </mxCell>
                <mxCell id="26" value="2023" style="sketch=0;outlineConnect=0;fontColor=#232F3E;gradientColor=none;fillColor=#7AA116;strokeColor=none;dashed=0;verticalLabelPosition=bottom;verticalAlign=top;align=center;html=1;fontSize=12;fontStyle=0;aspect=fixed;pointerEvents=1;shape=mxgraph.aws4.bucket;" vertex="1" parent="1">
                    <mxGeometry x="579" y="174.5" width="50" height="52" as="geometry"/>
                </mxCell>
                <mxCell id="35" style="edgeStyle=none;html=1;" edge="1" parent="1" source="27" target="30">
                    <mxGeometry relative="1" as="geometry"/>
                </mxCell>
                <mxCell id="36" style="edgeStyle=none;html=1;" edge="1" parent="1" source="27" target="29">
                    <mxGeometry relative="1" as="geometry"/>
                </mxCell>
                <mxCell id="27" value="02" style="sketch=0;outlineConnect=0;fontColor=#232F3E;gradientColor=none;fillColor=#7AA116;strokeColor=none;dashed=0;verticalLabelPosition=bottom;verticalAlign=top;align=center;html=1;fontSize=12;fontStyle=0;aspect=fixed;pointerEvents=1;shape=mxgraph.aws4.bucket;" vertex="1" parent="1">
                    <mxGeometry x="764" y="259" width="50" height="52" as="geometry"/>
                </mxCell>
                <mxCell id="28" value="・・・" style="text;html=1;align=center;verticalAlign=middle;resizable=0;points=[];autosize=1;strokeColor=none;fillColor=none;" vertex="1" parent="1">
                    <mxGeometry x="817" y="272" width="54" height="26" as="geometry"/>
                </mxCell>
                <mxCell id="29" value="" style="sketch=0;outlineConnect=0;fontColor=#232F3E;gradientColor=none;fillColor=#232F3D;strokeColor=none;dashed=0;verticalLabelPosition=bottom;verticalAlign=top;align=center;html=1;fontSize=12;fontStyle=0;aspect=fixed;pointerEvents=1;shape=mxgraph.aws4.document;" vertex="1" parent="1">
                    <mxGeometry x="808" y="354" width="39" height="53.37" as="geometry"/>
                </mxCell>
                <mxCell id="30" value="" style="sketch=0;outlineConnect=0;fontColor=#232F3E;gradientColor=none;fillColor=#232F3D;strokeColor=none;dashed=0;verticalLabelPosition=bottom;verticalAlign=top;align=center;html=1;fontSize=12;fontStyle=0;aspect=fixed;pointerEvents=1;shape=mxgraph.aws4.document;" vertex="1" parent="1">
                    <mxGeometry x="744" y="354" width="39" height="53.37" as="geometry"/>
                </mxCell>
                <mxCell id="31" value="2025/02のデータ" style="shape=callout;whiteSpace=wrap;html=1;perimeter=calloutPerimeter;" vertex="1" parent="1">
                    <mxGeometry x="248" y="70" width="120" height="80" as="geometry"/>
                </mxCell>
                <mxCell id="32" value="2025/02のデータ" style="shape=callout;whiteSpace=wrap;html=1;perimeter=calloutPerimeter;" vertex="1" parent="1">
                    <mxGeometry x="725" y="70" width="120" height="80" as="geometry"/>
                </mxCell>
                <mxCell id="37" value="" style="shape=flexArrow;endArrow=classic;html=1;fillColor=#f8cecc;strokeColor=#b85450;" edge="1" parent="1">
                    <mxGeometry width="50" height="50" relative="1" as="geometry">
                        <mxPoint x="686" y="140" as="sourcePoint"/>
                        <mxPoint x="871" y="394" as="targetPoint"/>
                        <Array as="points">
                            <mxPoint x="762" y="200"/>
                            <mxPoint x="781" y="279"/>
                            <mxPoint x="736" y="394"/>
                        </Array>
                    </mxGeometry>
                </mxCell>
                <mxCell id="25" value="2025" style="sketch=0;outlineConnect=0;fontColor=#232F3E;gradientColor=none;fillColor=#7AA116;strokeColor=none;dashed=0;verticalLabelPosition=bottom;verticalAlign=top;align=center;html=1;fontSize=12;fontStyle=0;aspect=fixed;pointerEvents=1;shape=mxgraph.aws4.bucket;" vertex="1" parent="1">
                    <mxGeometry x="762" y="174.5" width="50" height="52" as="geometry"/>
                </mxCell>
                <mxCell id="38" value="" style="sketch=0;outlineConnect=0;fontColor=#232F3E;gradientColor=none;fillColor=#232F3D;strokeColor=none;dashed=0;verticalLabelPosition=bottom;verticalAlign=top;align=center;html=1;fontSize=12;fontStyle=0;aspect=fixed;pointerEvents=1;shape=mxgraph.aws4.document;" vertex="1" parent="1">
                    <mxGeometry x="517" y="354" width="39" height="53.37" as="geometry"/>
                </mxCell>
                <mxCell id="39" value="" style="sketch=0;outlineConnect=0;fontColor=#232F3E;gradientColor=none;fillColor=#232F3D;strokeColor=none;dashed=0;verticalLabelPosition=bottom;verticalAlign=top;align=center;html=1;fontSize=12;fontStyle=0;aspect=fixed;pointerEvents=1;shape=mxgraph.aws4.document;" vertex="1" parent="1">
                    <mxGeometry x="556" y="354" width="39" height="53.37" as="geometry"/>
                </mxCell>
                <mxCell id="40" value="" style="sketch=0;outlineConnect=0;fontColor=#232F3E;gradientColor=none;fillColor=#232F3D;strokeColor=none;dashed=0;verticalLabelPosition=bottom;verticalAlign=top;align=center;html=1;fontSize=12;fontStyle=0;aspect=fixed;pointerEvents=1;shape=mxgraph.aws4.document;" vertex="1" parent="1">
                    <mxGeometry x="597" y="354" width="39" height="53.37" as="geometry"/>
                </mxCell>
                <mxCell id="41" value="" style="sketch=0;outlineConnect=0;fontColor=#232F3E;gradientColor=none;fillColor=#232F3D;strokeColor=none;dashed=0;verticalLabelPosition=bottom;verticalAlign=top;align=center;html=1;fontSize=12;fontStyle=0;aspect=fixed;pointerEvents=1;shape=mxgraph.aws4.document;" vertex="1" parent="1">
                    <mxGeometry x="637" y="354" width="39" height="53.37" as="geometry"/>
                </mxCell>
                <mxCell id="42" value="" style="sketch=0;outlineConnect=0;fontColor=#232F3E;gradientColor=none;fillColor=#232F3D;strokeColor=none;dashed=0;verticalLabelPosition=bottom;verticalAlign=top;align=center;html=1;fontSize=12;fontStyle=0;aspect=fixed;pointerEvents=1;shape=mxgraph.aws4.document;" vertex="1" parent="1">
                    <mxGeometry x="681" y="354" width="39" height="53.37" as="geometry"/>
                </mxCell>
                <mxCell id="43" value="パーティションなし" style="text;html=1;align=center;verticalAlign=middle;resizable=0;points=[];autosize=1;strokeColor=none;fillColor=none;fontSize=18;fontStyle=5" vertex="1" parent="1">
                    <mxGeometry x="65" y="26" width="180" height="34" as="geometry"/>
                </mxCell>
                <mxCell id="44" value="パーティションあり" style="text;html=1;align=center;verticalAlign=middle;resizable=0;points=[];autosize=1;strokeColor=none;fillColor=none;fontSize=18;fontStyle=5" vertex="1" parent="1">
                    <mxGeometry x="514" y="26" width="180" height="34" as="geometry"/>
                </mxCell>
            </root>
        </mxGraphModel>
    </diagram>
</mxfile>